# xmcd
#
# Track frame offsets: 
#        150
#        15329
#        48208
#        63695
#        75341
#        99807
#        113159
#        129767
#        140841
#        162973
#        178757
#        190529
#        201516
#        225805
#        243408
#        251722
#
# Disc length: 3674 seconds
#
# Revision: 1
# Processed by: cddbd v1.5.2PL0 Copyright (c) Steve Scherf et al.
# Submitted via: ExactAudioCopy v1.0b3
#
DISCID=c50e5810
DTITLE=Spirit of... Jazz - Spirit of... Jazz - CD 1 - From the roots..
DTITLE=
DYEAR=2006
DGENRE=Jazz
TTITLE0=Nina Simone - Love me or leave me
TTITLE1=John Coltrane - Pristine (Take 2)
TTITLE2=Charles Mingus - Slippers
TTITLE3=Gordon Beck - The Hustler
TTITLE4=Lou Donaldson - The Humpack
TTITLE5=George Benson - Along comes Mary
TTITLE6=Three Sounds - Yeh Yeh
TTITLE7=Dee Felice Trio - Nightingale
TTITLE8=Buddy Rich - The beat goes on
TTITLE9=Anita O'Day - Sing, sing, sing
TTITLE10=Rita Rey's and Olivier Nelson - Wives and lovers
TTITLE11=Dave Brubeck - Mr Brodway
TTITLE12=Thelonious Monk Quartet - Bye-ya
TTITLE13=Chet Baker - Stella by startlight
TTITLE14=Sarah Vaughan Jazz Group - Peter Gunn
TTITLE15=Leon Thomas - Song for my father
EXTD=YEAR: 2006
EXTT0=
EXTT1=
EXTT2=
EXTT3=
EXTT4=
EXTT5=
EXTT6=
EXTT7=
EXTT8=
EXTT9=
EXTT10=
EXTT11=
EXTT12=
EXTT13=
EXTT14=
EXTT15=
PLAYORDER=
